<svg xmlns="http://www.w3.org/2000/svg" viewBox="0 0 148 32">
      <path fill="#43455a" d="M48.13 15.48h7.8v.15a10.33 10.33 0 0 1-2.81 7.65 8.85 8.85 0 0 1-6.44 2.41 8.22 8.22 0 0 1-6.43-2.58A10.13 10.13 0 0 1 37.44 16a10.09 10.09 0 0 1 2.75-7.06 10.07 10.07 0 0 1 7.12-2.84 10.23 10.23 0 0 1 4.93 1.19 8.61 8.61 0 0 1 3.06 2.81L53 11.71a7.76 7.76 0 0 0-2.33-2.15 6.39 6.39 0 0 0-3.34-.82 6.83 6.83 0 0 0-5 1.95 7.84 7.84 0 0 0-.06 10.44A6.13 6.13 0 0 0 47 23a5.7 5.7 0 0 0 4.23-1.68 5.09 5.09 0 0 0 1.59-3.2h-4.69Zm20.58 7.12a6.25 6.25 0 0 1-2 2.18 6.53 6.53 0 0 1-3.52.91 5.32 5.32 0 0 1-4-1.53 6.41 6.41 0 0 1-1.79-4.56 7 7 0 0 1 1.9-4.91 5.43 5.43 0 0 1 4-1.62 5.17 5.17 0 0 1 3.83 1.56 7.19 7.19 0 0 1 1.68 5V20h-8.58a4 4 0 0 0 1 2.41 2.87 2.87 0 0 0 2.13.77 2.9 2.9 0 0 0 1.9-.6 4.29 4.29 0 0 0 1.1-1.3ZM66 17.75a2.86 2.86 0 0 0-.85-1.61 2.91 2.91 0 0 0-3.83.08 3.12 3.12 0 0 0-.85 1.53Zm16.8 1.62a6.38 6.38 0 0 1-12.76 0 6.38 6.38 0 0 1 12.76 0Zm-2.8.03c0-2.73-1.78-3.83-3.54-3.83s-3.54 1.1-3.54 3.83c0 2.29 1.36 3.8 3.54 3.8S80 21.69 80 19.4Zm14-3.08a17.71 17.71 0 0 0-2.83-1.53l-1-.47c-1.83-.93-3.17-1.59-3.17-3.51a3.21 3.21 0 0 1 3.36-3.36 3.88 3.88 0 0 1 3.57 2.24l.09.17 1.15-1-.06-.11A5.2 5.2 0 0 0 90.39 6a4.73 4.73 0 0 0-5 4.86A4.23 4.23 0 0 0 86 13.1c.69 1.14 1.73 1.69 3.52 2.55 1.55.76 2.66 1.33 3.19 1.64a3.2 3.2 0 0 1 1.77 2.84 4.22 4.22 0 0 1-4.41 4.21 4.39 4.39 0 0 1-3.42-1.56 6.16 6.16 0 0 1-1-1.76l-.06-.17-1.36.65v.13a6.41 6.41 0 0 0 1.25 2.12 5.56 5.56 0 0 0 4.51 2 5.82 5.82 0 0 0 6.06-5.68A4.29 4.29 0 0 0 94 16.32Zm8.23 7.34-4.69-9.97-.05-.09h-1.64l5.57 11.92L98.63 32h1.65l7.73-18.4h-1.65l-4.13 10.06zm11.47-10.32a4 4 0 0 0-3.39 1.66v-1.4h-1.45v11.88h1.45v-6.17a6.18 6.18 0 0 1 .6-3 2.89 2.89 0 0 1 2.7-1.54 2.3 2.3 0 0 1 2.14 1.07 4.19 4.19 0 0 1 .43 2.24v7.44h1.44V18a5.68 5.68 0 0 0-.59-3 3.76 3.76 0 0 0-3.33-1.66Zm8.2-3.88h-1.45v4.14h-1.27v1.39h1.27v10.49h1.45V14.99h2.01V13.6h-2.01V9.46zm12.36 5.85a5.45 5.45 0 0 0-4.35-2c-3.47 0-5.8 2.49-5.8 6.2 0 4.1 2.92 6.25 5.8 6.25a5.51 5.51 0 0 0 4.35-2.05v1.74h1.45V13.6h-1.45ZM130 24.4c-2.87 0-4.38-2.49-4.38-4.95a4.37 4.37 0 1 1 8.71 0c-.01 2.39-1.33 4.95-4.33 4.95Zm13.23-5.15 4.31-5.65h-1.78l-3.52 4.66-3.58-4.66h-1.79l4.41 5.66-4.8 6.22h1.78l3.98-5.23 3.98 5.23H148l-4.77-6.23z"/>
      <path fill="#d5562b" d="M18.47 2.62h-6.18a1.13 1.13 0 0 0-.84.37 45.72 45.72 0 0 0-7.27 10.77 1.12 1.12 0 0 0 1 1.62h8.27a1.11 1.11 0 0 0 1.05-.74A56.49 56.49 0 0 1 19.43 4.3a1.11 1.11 0 0 0-.96-1.68Zm-6.54 22.79a50.26 50.26 0 0 1 1.39-7A1.11 1.11 0 0 0 12.25 17h-8.7a1.12 1.12 0 0 0-1 .72A45.58 45.58 0 0 0 0 27.75 1.11 1.11 0 0 0 1.12 29h9.47a1.11 1.11 0 0 0 1.1-1q.09-1.31.24-2.59Zm1.57.21q-.13 1.1-.21 2.19A1.11 1.11 0 0 0 14.4 29h11.19a1.11 1.11 0 0 0 1.1-1.06 73.14 73.14 0 0 1 1.12-9.66A1.1 1.1 0 0 0 26.72 17H16.21a1.12 1.12 0 0 0-1.07.79 48.4 48.4 0 0 0-1.64 7.83ZM22 3.12a57.08 57.08 0 0 0-5.58 10.77 1.1 1.1 0 0 0 1 1.49h10a1.11 1.11 0 0 0 1.07-.85 72.8 72.8 0 0 1 3.32-10.4 1.11 1.11 0 0 0-1-1.51H23a1.13 1.13 0 0 0-1 .5Z"/>
    </svg>
