<svg xmlns="http://www.w3.org/2000/svg" viewBox="0 0 32 32">
  <path fill="#d5562b" d="M18.47 2.62h-6.18a1.13 1.13 0 0 0-.84.37 45.72 45.72 0 0 0-7.27 10.77 1.12 1.12 0 0 0 1 1.62h8.27a1.11 1.11 0 0 0 1.05-.74A56.49 56.49 0 0 1 19.43 4.3a1.11 1.11 0 0 0-.96-1.68Zm-6.54 22.79a50.26 50.26 0 0 1 1.39-7A1.11 1.11 0 0 0 12.25 17h-8.7a1.12 1.12 0 0 0-1 .72A45.58 45.58 0 0 0 0 27.75 1.11 1.11 0 0 0 1.12 29h9.47a1.11 1.11 0 0 0 1.1-1q.09-1.31.24-2.59Zm1.57.21q-.13 1.1-.21 2.19A1.11 1.11 0 0 0 14.4 29h11.19a1.11 1.11 0 0 0 1.1-1.06 73.14 73.14 0 0 1 1.12-9.66A1.1 1.1 0 0 0 26.72 17H16.21a1.12 1.12 0 0 0-1.07.79 48.4 48.4 0 0 0-1.64 7.83ZM22 3.12a57.08 57.08 0 0 0-5.58 10.77 1.1 1.1 0 0 0 1 1.49h10a1.11 1.11 0 0 0 1.07-.85 72.8 72.8 0 0 1 3.32-10.4 1.11 1.11 0 0 0-1-1.51H23a1.13 1.13 0 0 0-1 .5Z"/>
</svg>
